<svg width="703" height="496" viewBox="0 0 703 496" fill="none" xmlns="http://www.w3.org/2000/svg">
<path d="M251.833 483.529V484.614H257.884V491.388C257.259 492.211 256.437 492.835 255.418 493.296C254.365 493.756 253.247 493.986 252.03 493.986C249.432 493.986 247.393 493.033 245.913 491.158C244.434 489.284 243.677 486.653 243.677 483.298C243.677 479.911 244.401 477.28 245.848 475.406C247.295 473.531 249.334 472.61 251.932 472.61C253.28 472.61 254.464 472.841 255.549 473.334C256.601 473.827 257.424 474.551 258.048 475.439L258.64 474.518C258.016 473.564 257.128 472.841 255.944 472.282C254.76 471.723 253.412 471.459 251.932 471.459C249.991 471.459 248.281 471.92 246.867 472.874C245.42 473.827 244.302 475.208 243.546 476.984C242.789 478.793 242.395 480.898 242.395 483.298C242.395 485.699 242.789 487.804 243.579 489.58C244.335 491.356 245.453 492.737 246.9 493.691C248.347 494.644 250.024 495.138 251.965 495.138C253.181 495.138 254.299 494.94 255.352 494.546C256.404 494.184 257.292 493.625 258.048 492.934L258.64 494.809H259.068V483.529H251.833Z" fill="#030404"/>
<path d="M282.201 471.9L274.473 493.013L266.744 471.9H264.771V494.921H265.955V473.051L274.111 494.921H274.834L283.056 472.887V494.921H284.24V471.9H282.201Z" fill="#030404"/>
<path d="M290.565 494.921H296.32C299.082 494.921 301.088 494.427 302.305 493.408C303.522 492.421 304.147 490.81 304.147 488.541C304.147 486.831 303.752 485.515 302.996 484.594C302.239 483.707 300.957 483.049 299.214 482.687V482.621C300.431 482.358 301.417 481.733 302.141 480.78C302.831 479.826 303.193 478.642 303.193 477.228C303.193 475.419 302.634 474.104 301.516 473.216C300.365 472.328 298.655 471.9 296.386 471.9H290.565V494.921ZM291.815 482.161V473.051H296.254C298.162 473.051 299.576 473.38 300.529 474.038C301.483 474.729 301.944 475.748 301.944 477.129C301.944 480.484 300.069 482.161 296.287 482.161H291.815ZM291.815 493.77V483.279H295.235C297.142 483.279 298.655 483.443 299.806 483.805C300.924 484.167 301.746 484.759 302.239 485.515C302.733 486.305 302.996 487.357 302.996 488.705C302.996 490.481 302.503 491.764 301.549 492.553C300.595 493.375 299.05 493.77 296.912 493.77H291.815Z" fill="#030404"/>
<path d="M309.414 494.921H310.664V483.937H323.818V494.921H325.068V471.9H323.818V482.786H310.664V471.9H309.414V494.921Z" fill="#030404"/>
<path d="M356.434 494.283C355.184 493.164 354.132 492.211 353.31 491.421C354.691 489.678 355.612 487.541 356.072 484.976H354.954C354.527 487.245 353.704 489.152 352.488 490.665C349.363 487.705 346.93 485.173 345.253 483.068C344.891 482.608 344.661 482.312 344.562 482.148C346.338 481.26 347.752 480.273 348.837 479.155C349.923 478.07 350.449 476.984 350.449 475.899C350.449 474.584 349.988 473.498 349.1 472.676C348.212 471.854 347.029 471.459 345.614 471.459C344.167 471.459 342.984 471.887 342.096 472.742C341.175 473.597 340.714 474.715 340.714 476.064C340.714 477.807 341.438 479.681 342.852 481.753C341.306 482.444 340.09 483.43 339.202 484.68C338.314 485.929 337.853 487.212 337.853 488.56C337.853 490.599 338.511 492.211 339.859 493.362C341.175 494.546 342.984 495.138 345.253 495.138C346.7 495.138 348.048 494.874 349.298 494.381C350.547 493.888 351.633 493.164 352.586 492.211L355.711 495.138L356.434 494.283ZM345.68 472.578C346.7 472.578 347.555 472.874 348.212 473.498C348.87 474.123 349.199 474.945 349.199 475.965C349.199 476.886 348.706 477.807 347.719 478.727C346.7 479.681 345.45 480.503 343.904 481.26C342.622 479.254 341.964 477.511 341.964 476.096C341.964 475.077 342.326 474.222 343.016 473.564C343.707 472.906 344.595 472.578 345.68 472.578ZM345.483 494.019C343.51 494.019 341.964 493.526 340.813 492.572C339.662 491.619 339.103 490.27 339.103 488.593C339.103 487.442 339.498 486.291 340.287 485.206C341.043 484.121 342.128 483.266 343.477 482.641L344.398 483.792C345.91 485.601 348.377 488.133 351.797 491.421C350.975 492.276 350.021 492.934 348.969 493.362C347.884 493.789 346.733 494.019 345.483 494.019Z" fill="#030404"/>
<path d="M376.383 495.138C377.797 495.138 379.079 494.842 380.296 494.283C381.513 493.723 382.401 493 382.993 492.079L382.368 491.093C381.809 491.98 381.02 492.704 380 493.197C378.948 493.723 377.764 493.987 376.481 493.987C373.949 493.987 372.009 493.033 370.595 491.158C369.181 489.284 368.457 486.653 368.457 483.299C368.457 479.911 369.181 477.28 370.628 475.406C372.042 473.531 374.081 472.61 376.711 472.61C377.994 472.61 379.079 472.841 380 473.301C380.888 473.794 381.677 474.518 382.368 475.504L382.993 474.518C382.335 473.564 381.447 472.808 380.329 472.249C379.178 471.723 377.961 471.459 376.613 471.459C374.672 471.459 373.028 471.92 371.614 472.874C370.2 473.827 369.082 475.209 368.325 476.984C367.569 478.793 367.174 480.898 367.174 483.299C367.174 485.765 367.536 487.87 368.293 489.646C369.016 491.421 370.068 492.77 371.45 493.723C372.831 494.677 374.475 495.138 376.383 495.138Z" fill="#030404"/>
<path d="M394.615 495.138C396.424 495.138 398.035 494.644 399.416 493.658C400.797 492.704 401.883 491.323 402.639 489.514C403.395 487.738 403.757 485.666 403.757 483.299C403.757 480.931 403.395 478.859 402.639 477.05C401.883 475.274 400.797 473.893 399.416 472.906C398.035 471.953 396.424 471.459 394.615 471.459C392.806 471.459 391.195 471.953 389.813 472.906C388.432 473.893 387.38 475.274 386.623 477.05C385.867 478.859 385.472 480.931 385.472 483.299C385.472 485.666 385.834 487.738 386.591 489.514C387.347 491.323 388.399 492.704 389.78 493.658C391.162 494.644 392.773 495.138 394.615 495.138ZM394.615 494.019C393.003 494.019 391.622 493.592 390.438 492.704C389.254 491.816 388.333 490.566 387.709 488.955C387.051 487.344 386.722 485.469 386.722 483.299C386.722 481.128 387.051 479.221 387.709 477.609C388.333 475.998 389.254 474.781 390.438 473.893C391.622 473.005 393.003 472.578 394.615 472.578C396.226 472.578 397.607 473.005 398.791 473.893C399.975 474.781 400.896 475.998 401.554 477.609C402.179 479.221 402.507 481.128 402.507 483.299C402.507 485.469 402.179 487.344 401.554 488.955C400.896 490.566 399.975 491.816 398.791 492.704C397.607 493.592 396.226 494.019 394.615 494.019Z" fill="#030404"/>
<path d="M408.712 495.077C409.14 495.077 409.468 494.945 409.732 494.649C409.995 494.386 410.126 494.057 410.126 493.63C410.126 493.202 409.995 492.873 409.732 492.577C409.468 492.314 409.14 492.183 408.712 492.183C408.285 492.183 407.956 492.314 407.693 492.577C407.43 492.873 407.298 493.202 407.298 493.63C407.298 494.057 407.43 494.386 407.693 494.649C407.956 494.945 408.285 495.077 408.712 495.077Z" fill="#030404"/>
<path d="M438.378 494.921L429.268 481.24L437.457 471.9H436.076L424.862 484.693V471.9H423.612V494.921H424.862V486.272L428.512 482.095L437.095 494.921H438.378Z" fill="#030404"/>
<path d="M449.585 483.529V484.614H455.636V491.389C455.011 492.211 454.189 492.836 453.169 493.296C452.117 493.756 450.999 493.987 449.782 493.987C447.184 493.987 445.145 493.033 443.665 491.158C442.185 489.284 441.429 486.653 441.429 483.299C441.429 479.911 442.152 477.28 443.599 475.406C445.046 473.531 447.085 472.61 449.683 472.61C451.032 472.61 452.215 472.841 453.301 473.334C454.353 473.827 455.175 474.551 455.8 475.439L456.392 474.518C455.767 473.564 454.879 472.841 453.695 472.282C452.511 471.723 451.163 471.459 449.683 471.459C447.743 471.459 446.033 471.92 444.619 472.874C443.172 473.827 442.054 475.209 441.297 476.984C440.541 478.793 440.146 480.898 440.146 483.299C440.146 485.699 440.541 487.804 441.33 489.58C442.087 491.356 443.205 492.737 444.652 493.691C446.099 494.644 447.776 495.138 449.716 495.138C450.933 495.138 452.051 494.94 453.103 494.546C454.156 494.184 455.044 493.625 455.8 492.934L456.392 494.809H456.82V483.529H449.585Z" fill="#030404"/>
<path d="M102.161 342.271L83.79 441.146L57.8016 342.271H50.6324L24.6441 441.146L6.27304 342.271H0L21.2089 446.821H27.93L54.217 348.095L80.5041 446.821H87.2252L108.434 342.271H102.161Z" fill="#030404"/>
<path d="M200.774 446.821H207.196L172.247 342.271H166.123L131.173 446.821H137.595L146.706 418.593H191.663L200.774 446.821ZM148.2 413.664L169.259 348.693L190.17 413.664H148.2Z" fill="#030404"/>
<path d="M244.048 446.821H301.402V441.594H249.724V342.271H244.048V446.821Z" fill="#030404"/>
<path d="M346.028 446.821H351.703V347.498H385.01V342.271H312.721V347.498H346.028V446.821Z" fill="#030404"/>
<path d="M421.738 446.821H427.414V396.936H487.157V446.821H492.832V342.271H487.157V391.708H427.414V342.271H421.738V446.821Z" fill="#030404"/>
<path d="M540.786 446.821H596.496V441.594H546.461V394.247H591.269V389.02H546.461V347.498H596.496V342.271H540.786V446.821Z" fill="#030404"/>
<path d="M640.103 446.821H645.778V396.786H660.863C666.39 396.786 670.721 397.832 673.858 400.072C676.994 402.312 679.683 405.897 681.774 411.125L695.963 446.821H702.385L686.404 407.988C685.06 404.852 683.715 402.462 682.222 400.52C680.579 398.579 678.637 397.085 676.397 396.039V395.741C683.417 394.546 689.092 391.559 693.125 386.779C697.158 382 699.249 376.025 699.249 368.707C699.249 359.745 696.709 353.024 691.631 348.693C686.404 344.361 678.637 342.271 668.033 342.271H640.103V446.821ZM645.778 391.559V347.498H667.585C676.397 347.498 682.968 349.141 687.3 352.427C691.482 355.862 693.573 360.94 693.573 367.96C693.573 376.025 691.482 382 687.449 385.734C683.267 389.617 676.845 391.559 668.182 391.559H645.778Z" fill="#030404"/>
<path d="M4.73987 294.651H16.7105" stroke="#030404" stroke-width="2.74052" stroke-miterlimit="2"/>
<path d="M4.73987 285.172H16.7105" stroke="#030404" stroke-width="2.74052" stroke-miterlimit="2"/>
<path fill-rule="evenodd" clip-rule="evenodd" d="M36.5163 302.208H17.4163V278.778H36.0079L48.9966 284.636V296.605L36.5163 302.208Z" stroke="#030404" stroke-width="2.74052" stroke-miterlimit="2"/>
<path d="M31.6555 285.512C31.6555 286.308 31.0102 286.956 30.2127 286.956C29.4165 286.956 28.7698 286.308 28.7698 285.512C28.7698 284.715 29.4165 284.069 30.2127 284.069C31.0102 284.069 31.6555 284.715 31.6555 285.512Z" fill="#030404"/>
<path d="M31.6555 294.551C31.6555 295.347 31.0102 295.994 30.2127 295.994C29.4165 295.994 28.7698 295.347 28.7698 294.551C28.7698 293.754 29.4165 293.108 30.2127 293.108C31.0102 293.108 31.6555 293.754 31.6555 294.551Z" fill="#030404"/>
<path d="M632.495 235.565L632.295 291.533H583.396V243.625H568.116V237.512H564.041V241.587H557.928V226.306H552.835V185.557H548.761V176.389H526.348V185.557H520.235V228.344H510.05V275.205H502.919V283.864L497.824 287.939V274.186H485.6V194.726H478.469V130.547H472.357L471.87 82.4948L453.51 1L438.57 83.6869L439.588 130.547H430.588V194.726H422.439V272.148H401.047V280.299H395.952V267.82L387.294 258.906H363.991L355.204 265.527V125.454L340.177 113.738L340.942 190.652H329.736L328.718 144.3L320.058 132.075L320.626 185.053L311.399 185.557V199.82H307.324L308.343 237.512H297.138V229.363H280.837V247.699H261.482V198.036L239.58 192.688H186.097V234.457H179.984V229.363H157.573V233.437H149.424V254.236L138.218 254.321V145.318L85.0749 177.409L85.7531 290.486H48.0601" stroke="#030404" stroke-width="4.11078" stroke-miterlimit="2"/>
</svg>
